PathFileType	4	(X/Y/Z)	../Python\walking\Walking10\task.trc
DataRate	CameraRate	NumFrames	NumMarkers	Units	OrigDataRate	OrigDataStartFrame	OrigNumFrames
200.000000	200.000000	7	30	mm	200.000000	0	598
Frame#	Time	CLAV			STRN			RASI			LASI			RTH1			RTH2			RTH3			RTB1			RTB3			RD5M			RTOE			LTH1			LTH2			LTH3			LTB1			LTB2			LTB3			LTOE			LD5M			RTB2			T10			RHEE			C7			PE02			PE03			RPSI			LPSI			PE01			RBAK			LHEE			
		X1	Y1	Z1	X2	Y2	Z2	X3	Y3	Z3	X4	Y4	Z4	X5	Y5	Z5	X6	Y6	Z6	X7	Y7	Z7	X8	Y8	Z8	X9	Y9	Z9	X10	Y10	Z10	X11	Y11	Z11	X12	Y12	Z12	X13	Y13	Z13	X14	Y14	Z14	X15	Y15	Z15	X16	Y16	Z16	X17	Y17	Z17	X18	Y18	Z18	X19	Y19	Z19	X20	Y20	Z20	X21	Y21	Z21	X22	Y22	Z22	X23	Y23	Z23	X24	Y24	Z24	X25	Y25	Z25	X26	Y26	Z26	X27	Y27	Z27	X28	Y28	Z28	X29	Y29	Z29	X30	Y30	Z30	

1	0	-1019.562316894532	1394.95556640625	213.258026123047	-973.158813476563	1199.08349609375	221.3944854736329	-984.7304687500005	1001.910705566407	356.3151245117189	-1014.375549316407	988.130004882813	77.59271240234378	-963.3312988281255	744.6317138671877	410.1806335449221	-1007.59130859375	704.8338012695315	393.0846862792971	-971.884155273438	669.8469238281252	385.1539306640627	-826.9956054687505	365.1232299804689	335.514373779297	-803.1230468750005	290.4490051269532	324.3898925781251	-625.4472656250002	42.17708969116212	307.6670837402345	-587.2237548828127	82.6071701049805	274.7712707519532	-1185.0087890625	710.2274169921877	69.77458953857425	-1221.120971679688	683.3664550781252	92.4348068237305	-1185.951049804688	632.3074951171877	84.70802307128909	-1333.88671875	377.654998779297	125.6652526855469	-1375.488891601563	355.3637084960939	141.3593902587891	-1346.109008789063	300.989715576172	138.6233062744141	-1321.333862304688	29.54122734069826	204.1846618652345	-1374.791748046875	21.04504394531251	162.4195861816407	-850.1117553710942	308.5717163085939	335.3353576660157	-1198.930297851563	1236.56298828125	208.6872558593751	-779.7663574218755	14.85460758209229	232.2742919921876	-1127.681640625	1490.896850585938	198.3174285888673	-1163.591918945313	1024.378173828125	275.1362304687501	-1173.601684570313	1023.056518554688	224.9535980224611	-1155.688842773438	1036.8095703125	296.612030029297	-1172.236694335938	1036.982788085938	198.9085388183595	-1157.407104492188	1083.826904296875	245.8978424072267	-1158.620849609375	1408.806518554688	367.8306579589845	-1520.28125	105.5598297119141	229.9419860839845	
2	0.005	-1012.474792480469	1395.1806640625	213.5690765380861	-965.2435913085942	1199.53369140625	221.5039520263673	-976.5358276367192	1002.494445800782	356.4221496582032	-1005.596557617188	987.5168457031255	77.80549621582034	-954.9020385742192	745.6712036132815	409.9533386230471	-999.292114257813	705.8389892578127	393.3931579589846	-963.5507202148442	670.8725585937502	385.0737915039065	-821.9157104492192	364.3564758300782	335.3939514160157	-798.7039184570317	289.4664001464845	324.103240966797	-624.1326904296877	38.5187339782715	307.9151306152345	-584.5825195312502	77.34903717041018	275.2597656250001	-1176.982666015625	710.0784301757815	69.84197998046878	-1213.150634765625	683.3067016601565	92.5397872924805	-1178.1748046875	632.108093261719	84.75781250000003	-1328.111694335938	378.8875122070314	125.1638336181641	-1370.012084960938	357.0755920410157	140.7808227539063	-1341.314697265625	302.3666076660157	138.0279541015626	-1321.135986328125	29.53890800476076	204.0587005615236	-1374.568481445313	21.08596992492676	162.3014526367188	-845.5754394531255	307.9622497558595	334.8328857421876	-1191.215454101563	1236.098388671875	208.7602539062501	-778.622436523438	15.20561122894288	231.6396636962892	-1120.941650390625	1490.775268554688	198.6923065185548	-1155.393798828125	1024.6259765625	274.8862915039064	-1165.166381835938	1023.093078613282	224.6828460693361	-1147.546142578125	1037.140014648438	296.3728942871095	-1163.755615234375	1036.869750976563	198.582244873047	-1149.1875	1083.957763671875	245.4271850585939	-1151.592651367188	1408.358154296875	368.1661987304689	-1518.567749023438	109.7212142944337	228.9051208496095	
3	0.01	-1005.372253417969	1395.476196289063	213.8858642578126	-957.2980346679692	1200.06884765625	221.6206054687501	-968.3529663085942	1003.209655761719	356.5380249023439	-996.7393188476567	986.9323120117192	78.07888031005862	-946.4114379882817	746.8549804687502	409.6869201660159	-990.948852539063	706.979431152344	393.7464904785159	-955.2007446289067	672.0305786132815	385.001403808594	-816.859985351563	363.7180480957032	335.250457763672	-794.335571289063	288.6217346191407	323.8182373046876	-623.0775146484377	34.96375274658205	308.2185058593751	-582.1403808593752	72.0165939331055	275.6709289550782	-1168.719604492188	709.8831787109377	69.91663360595706	-1204.944946289063	683.1979980468752	92.64528656005862	-1170.149780273438	631.8701171875002	84.83227539062503	-1322.10009765625	380.1437072753907	124.6353988647462	-1364.296508789063	358.8218994140626	140.1761016845704	-1336.296020507813	303.7755737304689	137.3830718994141	-1320.973022460938	29.52048492431642	203.9388122558595	-1374.339965820313	21.15448951721192	162.1728973388672	-841.0668945312505	307.496307373047	334.3790893554689	-1183.464111328125	1235.695068359375	208.8214263916017	-777.7372436523442	15.68614864349366	231.1091461181642	-1114.189331054688	1490.714965820313	199.0743408203126	-1147.185668945313	1024.95849609375	274.5836791992189	-1156.70166015625	1023.201538085938	224.3589782714845	-1139.400146484375	1037.559326171875	296.0828247070314	-1155.240112304688	1036.822021484375	198.2006072998048	-1140.951293945313	1084.163940429688	244.8932952880861	-1144.541381835938	1407.969116210938	368.5068969726564	-1516.458129882813	113.9880752563477	227.8102874755861	
4	0.015	-998.2568969726567	1395.83935546875	214.2070159912111	-949.3291625976567	1200.684204101563	221.7434387207032	-960.1891479492192	1004.054321289063	356.6629638671876	-987.8181152343755	986.3781127929692	78.41371154785159	-937.882202148438	748.1694335937502	409.3859558105471	-982.586059570313	708.247009277344	394.1424560546877	-946.8667602539067	673.309753417969	384.9388427734377	-811.8174438476567	363.2172851562501	335.081756591797	-789.996459960938	287.9301757812501	323.5338745117189	-622.2205200195315	31.59668159484865	308.5610351562501	-579.8671875000002	66.743278503418	275.9662170410157	-1160.228515625	709.6447753906252	70.00269317626956	-1196.508666992188	683.0428466796877	92.75991821289065	-1161.88232421875	631.5974731445315	84.92575836181643	-1315.840576171875	381.419403076172	124.0810012817383	-1358.329345703125	360.5979309082032	139.5487976074219	-1331.040405273438	305.2120056152345	136.6854858398438	-1320.859619140625	29.48302268981935	203.8297271728517	-1374.106201171875	21.25937461853028	162.0345611572266	-836.5637207031255	307.1819152832032	333.9859619140626	-1175.6826171875	1235.354125976563	208.8695526123048	-777.0430297851567	16.27719116210938	230.6787414550782	-1107.425415039063	1490.71484375	199.4618530273439	-1138.975463867188	1025.37109375	274.2294311523439	-1148.218139648438	1023.378051757813	223.9830932617189	-1131.258666992188	1038.06298828125	295.7423095703126	-1146.701904296875	1036.836791992188	197.7652435302736	-1132.707275390625	1084.44140625	244.298309326172	-1137.468994140625	1407.639770507813	368.8509216308595	-1513.952026367188	118.360221862793	226.6570434570314	
5	0.02	-991.130981445313	1396.266723632813	214.5310363769532	-941.344116210938	1201.375	221.8712921142579	-952.0515136718755	1005.025512695313	356.7969665527345	-978.8483276367192	985.8557739257817	78.8100509643555	-929.3370971679692	749.6002197265627	409.0557861328127	-974.2275390625005	709.6322021484377	394.5783386230471	-938.5783081054692	674.6980590820315	384.8880920410159	-806.7800903320317	362.8595275878907	334.886444091797	-785.6707153320317	287.4008178710939	323.2487792968751	-621.5090942382815	28.48865127563478	308.9257812500001	-577.741149902344	61.65273284912112	276.1142883300782	-1151.519653320313	709.3653564453127	70.10393524169925	-1187.847412109375	682.8421020507815	92.89150238037112	-1153.379516601563	631.292663574219	85.03156280517581	-1309.320434570313	382.7085876464845	123.5012969970704	-1352.096557617188	362.3972473144532	138.9020538330079	-1325.53466796875	306.6698608398439	135.932113647461	-1320.809692382813	29.42495346069337	203.7362518310548	-1373.865234375	21.41110229492188	161.886947631836	-832.0492553710942	307.0230407714845	333.6633605957032	-1167.877197265625	1235.076171875	208.9037475585939	-776.4828491210942	16.95491600036622	230.3425445556642	-1100.650512695313	1490.774169921875	199.8531951904298	-1130.771606445313	1025.859008789063	273.8250427246095	-1139.726684570313	1023.618469238282	223.5569610595704	-1123.12939453125	1038.645874023438	295.3524780273439	-1138.152465820313	1036.910766601563	197.2783660888673	-1124.4638671875	1084.785400390625	243.6450805664064	-1130.37744140625	1407.369995117188	369.1965332031251	-1511.048828125	122.837142944336	225.444061279297	
6	0.025	-983.9970092773442	1396.754760742188	214.8563232421876	-933.350219726563	1202.135498046875	222.0028839111329	-943.946655273438	1006.118835449219	356.9397888183595	-969.8462524414067	985.3668823242192	79.26704406738284	-920.7985229492192	751.1324462890627	408.7024841308596	-965.895385742188	711.124206542969	395.0509338378909	-930.361450195313	676.1826782226565	384.851257324219	-801.743774414063	362.6455993652345	334.6638488769532	-781.3491821289067	287.0362548828126	322.9612121582032	-620.900085449219	25.69483184814455	309.2960815429689	-575.747253417969	56.85263442993167	276.0945129394532	-1142.604614257813	709.0457153320315	70.22367095947268	-1178.968017578125	682.5942382812502	93.04675292968753	-1144.648559570313	630.9564208984377	85.14241790771487	-1302.526245117188	384.0032043457034	122.8965911865235	-1345.583740234375	364.2114868164064	138.2384185791016	-1319.76513671875	308.141571044922	135.1201171875001	-1320.834838867188	29.346736907959	203.6629028320314	-1373.6123046875	21.62208366394044	161.7302703857422	-827.513305664063	307.0193176269532	333.418182373047	-1160.0546875	1234.861694335938	208.9235687255861	-776.011596679688	17.69265747070313	230.0928955078126	-1093.865478515625	1490.891357421875	200.2467346191407	-1122.58203125	1026.416870117188	273.3728332519532	-1131.238403320313	1023.918273925782	223.0830230712892	-1115.019897460938	1039.302368164063	294.9151306152345	-1129.603759765625	1037.0400390625	196.7429351806642	-1116.229736328125	1085.191162109375	242.9371948242189	-1123.2685546875	1407.159301757813	369.5421142578126	-1507.746948242188	127.4176940917969	224.168426513672	
7	0.03	-976.8573608398442	1397.2998046875	215.1811676025392	-925.3547973632817	1202.959594726563	222.1367950439454	-935.8810424804692	1007.328735351563	357.0911560058595	-960.828735351563	984.912963867188	79.78291320800784	-912.288208007813	752.7507324218752	408.3327331542971	-957.609741210938	712.7109375000002	395.5566101074221	-922.2380371093755	677.7502441406252	384.8305969238284	-796.7083129882817	362.5719604492189	334.414520263672	-777.0294799804692	286.8326110839845	322.6691894531251	-620.360046386719	23.25326919555665	309.6566467285157	-573.8763427734377	52.43080520629886	275.8988342285157	-1133.495727539063	708.6843872070315	70.36462402343753	-1169.878051757813	682.2946777343752	93.23097991943362	-1135.69677734375	630.5864257812502	85.25093841552737	-1295.443969726563	385.293151855469	122.2668838500977	-1338.77587890625	366.0304565429689	137.5597839355469	-1313.717895507813	309.6178588867189	134.247299194336	-1320.942626953125	29.25153923034669	203.6136016845704	-1373.339477539063	21.90681457519532	161.5644073486329	-822.9525756835942	307.1659545898439	333.2539062500001	-1152.221801757813	1234.710693359375	208.9289398193361	-775.5953979492192	18.46283912658692	229.9206085205079	-1087.071044921875	1491.064819335938	200.6408691406251	-1114.41455078125	1027.038696289063	272.875701904297	-1122.764526367188	1024.272583007813	222.5644836425782	-1106.9375	1040.026489257813	294.4326782226564	-1121.067504882813	1037.220947265625	196.1626129150392	-1108.013061523438	1085.653198242188	242.1790161132814	-1116.144287109375	1407.007446289063	369.886199951172	-1504.044067382813	132.0999145507813	222.8250122070314	
